<svg id="Layer_1" data-name="Layer 1" xmlns="http://www.w3.org/2000/svg" viewBox="0 0 592.286 202.642"><title>partner</title><path d="M186.5325,8.1582,108.4743,200.3276a5.2234,5.2234,0,0,1-9.6793-.0012L20.8724,8.3537a5.2234,5.2234,0,0,1,7.7108-6.3283l75.05,49.3751L178.818,1.8316A5.2234,5.2234,0,0,1,186.5325,8.1582Z" transform="translate(-0.6518 -0.9432)" fill="#54b848"/><path d="M143.9963,35.9938,77.3083,200.1712a5.2234,5.2234,0,0,1-9.6793-.0012L1.0567,36.16A5.2233,5.2233,0,0,1,8.7674,29.832L69.5932,69.849a5.2233,5.2233,0,0,0,5.746-.0028l60.9426-40.1791A5.2234,5.2234,0,0,1,143.9963,35.9938Z" transform="translate(-0.6518 -0.9432)" fill="#1389ca"/><path d="M205.5716,35.9938l-66.688,164.1774a5.2234,5.2234,0,0,1-9.6793-.0012L62.632,36.16a5.2234,5.2234,0,0,1,7.7107-6.3282l60.8259,40.017a5.2231,5.2231,0,0,0,5.7459-.0028l60.9426-40.1791A5.2234,5.2234,0,0,1,205.5716,35.9938Z" transform="translate(-0.6518 -0.9432)" fill="#f9c831"/><path d="M154.9625,85.832l-46.4605,114.38a5.2234,5.2234,0,0,1-9.6793-.0012L52.4425,85.9469a5.2234,5.2234,0,0,1,7.7107-6.3283l40.6337,26.7327a5.2233,5.2233,0,0,0,5.746-.0028l40.715-26.8432A5.2235,5.2235,0,0,1,154.9625,85.832Z" transform="translate(-0.6518 -0.9432)" fill="#e11f35"/><path d="M250.6671,131.4584l3.9921-1.0642c4.7893-1.1979,5.5886-2.7943,5.5886-12.6422V54.2785c0-8.3839-.9318-8.7825-5.721-10.1129l-3.86-.9317V41.2378h36.7264l19.1614,52.1628h.4l19.4285-52.1628H362.712v1.9961l-3.86.9317c-4.9239,1.33-5.7211,1.5965-5.7211,10.1129v66.1353c0,8.5164.7972,8.7825,5.7211,10.1128l3.86.9318v1.9961H316.6677v-1.9961l3.9922-.9318c5.0564-1.33,5.8557-1.5964,5.8557-10.1128V55.21h-.5321l-27.9428,76.1156H292.85L265.7039,55.21h-.5322v61.8771c0,10.2464.3975,11.9753,6.1207,13.3068l4.1247,1.0642v1.9961h-24.75Z" transform="translate(-0.6518 -0.9432)" fill="#e11f35"/><path d="M365.2468,118.55c0-12.641,10.38-16.101,21.4246-19.0278l15.7014-4.2582V82.09c0-11.5768-1.0643-16.2346-7.9843-16.2346-3.9921,0-5.721.9318-5.9882,5.5885-.6646,10.2464-3.3253,13.0407-10.5125,13.0407-6.3857,0-9.7132-2.9267-9.7132-7.9832,0-8.916,10.5125-14.3721,30.4732-14.3721,16.7657,0,26.7461,5.19,26.7461,18.63V118.55c0,5.3236.5321,7.1861,2.7953,8.5164a16.5322,16.5322,0,0,0,6.2532,1.3315v1.73c-2.5282,1.9961-7.85,4.9228-16.2335,4.9228-7.9843,0-12.7757-3.06-14.5047-8.6489h-.5321c-3.5925,4.3907-9.0486,8.6489-18.6293,8.6489C372.6989,135.0509,365.2468,128.7966,365.2468,118.55Zm37.126,4.3918V100.3206l-4.2571.5321c-7.1872.7983-10.38,3.7261-10.38,13.1732,0,8.7836,3.1928,12.11,7.8518,12.11C398.78,126.1359,401.176,124.9381,402.3728,122.942Z" transform="translate(-0.6518 -0.9432)" fill="#e11f35"/><path d="M465.5868,122.942c0,5.9882.7993,6.3879,5.8557,7.7182l2.6607.7982v1.9961H434.184v-1.9961l2.6607-.7982c5.456-1.4639,5.721-1.8636,5.721-7.7182v-74.12c0-6.7864-.4-7.4521-4.7893-9.7143l-4.2593-1.996V35.6492l31.5375-2.9278,1.0643.6646s-.5321,7.32-.5321,16.2346Z" transform="translate(-0.6518 -0.9432)" fill="#e11f35"/><path d="M481.16,115.6234v-45.11h-7.32V69.0492c10.9121-3.9921,20.6253-13.3068,24.8846-23.0211h5.4561V63.9928h16.6332l-.9318,6.52H504.1811V115.49c0,7.5857,1.8614,9.5818,8.7814,9.5818a40.158,40.158,0,0,0,8.9161-1.1979V125.87c-3.46,3.8585-9.8479,9.181-21.1575,9.181C487.2807,135.0509,481.16,129.1963,481.16,115.6234Z" transform="translate(-0.6518 -0.9432)" fill="#e11f35"/><path d="M523.7421,118.55c0-12.641,10.38-16.101,21.4247-19.0278l15.7014-4.2582V82.09c0-11.5768-1.0643-16.2346-7.9843-16.2346-3.9921,0-5.7211.9318-5.9882,5.5885-.6646,10.2464-3.3254,13.0407-10.5125,13.0407-6.3857,0-9.7132-2.9267-9.7132-7.9832,0-8.916,10.5125-14.3721,30.4732-14.3721,16.7657,0,26.746,5.19,26.746,18.63V118.55c0,5.3236.5322,7.1861,2.7954,8.5164a16.5322,16.5322,0,0,0,6.2532,1.3315v1.73c-2.5282,1.9961-7.85,4.9228-16.2335,4.9228-7.9843,0-12.7758-3.06-14.5047-8.6489h-.5321c-3.5925,4.3907-9.0486,8.6489-18.6293,8.6489C531.1943,135.0509,523.7421,128.7966,523.7421,118.55Zm37.1261,4.3918V100.3206l-4.2571.5321c-7.1872.7983-10.38,3.7261-10.38,13.1732,0,8.7836,3.1928,12.11,7.8517,12.11C557.2757,126.1359,559.6714,124.9381,560.8682,122.942Z" transform="translate(-0.6518 -0.9432)" fill="#e11f35"/><path d="M266.8634,156.7821v22.5943a13.7635,13.7635,0,0,0,.06,1.48,1.8622,1.8622,0,0,0,.26.82,1.1533,1.1533,0,0,0,.58.4393,9.2046,9.2046,0,0,0,1.06.3l1.28.2795v.6H255.6657v-.6l1.28-.2795q.64-.1589,1.0405-.3a1.2678,1.2678,0,0,0,.62-.4393,1.7114,1.7114,0,0,0,.2795-.82,13.7635,13.7635,0,0,0,.06-1.48V156.7821h-.9993a3.4912,3.4912,0,0,0-2.1193.52,5.5284,5.5284,0,0,0-1.32,1.6,27.9373,27.9373,0,0,0-1.44,2.7391q-.84,1.78-1.7192,3.8188h-.6806l.3207-9.8766h23.7938l.36,9.8766h-.72q-.84-2.0388-1.6594-3.8188a21.0627,21.0627,0,0,0-1.46-2.7391,11.6212,11.6212,0,0,0-.66-.9994,3.09,3.09,0,0,0-.659-.66,2.1921,2.1921,0,0,0-.8807-.36,6.9049,6.9049,0,0,0-1.2788-.1Z" transform="translate(-0.6518 -0.9432)" fill="#1389ca"/><path d="M286.0185,183.7749a13.2017,13.2017,0,0,1-4.1592-.659,10.0288,10.0288,0,0,1-3.5384-2.02,9.6568,9.6568,0,0,1-2.44-3.3991,11.8044,11.8044,0,0,1-.8993-4.7986,12.0091,12.0091,0,0,1,.9592-5.0192A9.6736,9.6736,0,0,1,282,162.4809a13.3618,13.3618,0,0,1,4.019-.62,13.2056,13.2056,0,0,1,4.1591.659,10.2266,10.2266,0,0,1,3.5394,2,9.44,9.44,0,0,1,2.439,3.3991,11.9538,11.9538,0,0,1,.9,4.8192,12.2124,12.2124,0,0,1-.94,5.0182,9.48,9.48,0,0,1-6.0186,5.3988A13.71,13.71,0,0,1,286.0185,183.7749Zm.12-1.119a3.5958,3.5958,0,0,0,1.66-.3589,2.7138,2.7138,0,0,0,1.1592-1.3936,10.807,10.807,0,0,0,.7-2.9078,40.13,40.13,0,0,0,.2393-4.8986,39.0614,39.0614,0,0,0-.28-5.2183,11.3029,11.3029,0,0,0-.78-3.0667,2.941,2.941,0,0,0-1.24-1.4534,3.5976,3.5976,0,0,0-1.6594-.3785,3.2669,3.2669,0,0,0-1.58.3785,2.9228,2.9228,0,0,0-1.18,1.4338,10.828,10.828,0,0,0-.7394,2.8882,34.39,34.39,0,0,0-.26,4.7,46.4552,46.4552,0,0,0,.2393,5.2772,11.7,11.7,0,0,0,.72,3.1264,2.8391,2.8391,0,0,0,1.22,1.4937A3.8555,3.8555,0,0,0,286.1381,182.6559Z" transform="translate(-0.6518 -0.9432)" fill="#1389ca"/><path d="M312.772,166.86q0-.64-.04-1.06a2.1362,2.1362,0,0,0-.16-.68,1.4093,1.4093,0,0,0-.38-.48,8.686,8.686,0,0,0-.74-.54l-1.24-.8395v-.36l9.1577-1,.28.2v16.7965q0,.759.04,1.219a2.05,2.05,0,0,0,.18.74,1.1215,1.1215,0,0,0,.4394.46,3.9718,3.9718,0,0,0,.78.3393l1,.36v.48l-8.9175,1.28-.2805-.2393v-2.8391h-.12a23.6923,23.6923,0,0,1-3.4393,2.1389,9.2016,9.2016,0,0,1-4.2386.94,5.1629,5.1629,0,0,1-3.7591-1.3593,5.3272,5.3272,0,0,1-1.4-3.9993V166.82c0-.4266-.0137-.7659-.0392-1.02a2.3337,2.3337,0,0,0-.16-.66,1.3507,1.3507,0,0,0-.38-.4992,8.4846,8.4846,0,0,0-.7394-.54l-1.2-.8395v-.36l9.1185-1,.32.2V176.857a3.815,3.815,0,0,0,.66,2.5391,2.4083,2.4083,0,0,0,1.9.74,10.0025,10.0025,0,0,0,1.9192-.16q.7988-.16,1.44-.3207Z" transform="translate(-0.6518 -0.9432)" fill="#1389ca"/><path d="M322.29,182.6951l.84-.2393q.5589-.16.88-.28a.9593.9593,0,0,0,.48-.36,1.3534,1.3534,0,0,0,.2-.62q.04-.38.04-1.0591V166.7391a9.77,9.77,0,0,0-.04-.98,2.0238,2.0238,0,0,0-.16-.6394,1.3972,1.3972,0,0,0-.38-.48,8.3724,8.3724,0,0,0-.74-.54l-1.24-.8395v-.36l9.0381-1,.32.2v3.12h.08q.48-.5193,1.0994-1.12a8.4481,8.4481,0,0,1,1.38-1.08,8.6607,8.6607,0,0,1,1.6191-.7993,5.0488,5.0488,0,0,1,1.78-.3207,3.1112,3.1112,0,0,1,2.2389.8,3.053,3.053,0,0,1,.84,2.3193,3.2729,3.2729,0,0,1-.86,2.4194,2.9513,2.9513,0,0,1-2.1791.86,2.7593,2.7593,0,0,1-1.9-.56,3.9458,3.9458,0,0,1-.98-1.3994,2.6455,2.6455,0,0,0-.4207-.66.728.728,0,0,0-.5394-.18,2.7287,2.7287,0,0,0-1.02.24,4.0213,4.0213,0,0,0-1.02.6v13.7965q0,.68.04,1.0993a1.2919,1.2919,0,0,0,.22.66.9626.9626,0,0,0,.4805.3393,8.3213,8.3213,0,0,0,.8591.2206l1.08.2v.6394H322.29Z" transform="translate(-0.6518 -0.9432)" fill="#1389ca"/><path d="M340.6847,182.6951l.8395-.2393q.5591-.16.88-.28a1.013,1.013,0,0,0,.4795-.3394,1.2192,1.2192,0,0,0,.2-.6q.04-.38.04-1.06V166.7391c0-.4256-.0137-.7659-.04-1.0189a1.7245,1.7245,0,0,0-.18-.64,1.5959,1.5959,0,0,0-.42-.48q-.281-.2191-.76-.54l-1.24-.7992v-.36l9.4373-1,.2795.2q-.0793,1.24-.12,2.3792t-.04,2.6194v13.0767q0,.6811.04,1.06a1.2192,1.2192,0,0,0,.2.6,1.0035,1.0035,0,0,0,.5.3394q.3384.1206.8993.28l.8.2393v.6H340.6847Zm2.239-25.913a3.0034,3.0034,0,0,1,.9993-2.34,3.5746,3.5746,0,0,1,2.48-.8993,3.63,3.63,0,0,1,2.5194.8993,3.0034,3.0034,0,0,1,.9993,2.34,2.9718,2.9718,0,0,1-.9993,2.3791,3.727,3.727,0,0,1-2.5194.86,3.6693,3.6693,0,0,1-2.48-.86A2.9718,2.9718,0,0,1,342.9237,156.7821Z" transform="translate(-0.6518 -0.9432)" fill="#1389ca"/><path d="M360.0791,183.7749a25.0635,25.0635,0,0,1-3.5786-.2393,23.1146,23.1146,0,0,1-2.94-.6l-.199-6.6384h.68q.68,1.28,1.3592,2.36a23.9439,23.9439,0,0,0,1.3995,2,5.3055,5.3055,0,0,0,1.64,1.54,4.6758,4.6758,0,0,0,2.24.46,3.439,3.439,0,0,0,2.3389-.7806,2.728,2.728,0,0,0,.9-2.1792,2.9213,2.9213,0,0,0-.2206-1.18,2.5726,2.5726,0,0,0-.7591-.94,7.49,7.49,0,0,0-1.52-.9q-.98-.459-2.46-1.0592a11.0658,11.0658,0,0,1-4.1984-2.56,5.6851,5.6851,0,0,1-1.44-4.0788,6.9231,6.9231,0,0,1,.5394-2.7194,6.383,6.383,0,0,1,1.62-2.26,7.9424,7.9424,0,0,1,2.6988-1.5593,11.2109,11.2109,0,0,1,3.78-.58,18.9851,18.9851,0,0,1,3.2785.26,12.1518,12.1518,0,0,1,2.28.58l.2393,5.638h-.5992q-.7607-1.1591-1.34-2.0388a14.137,14.137,0,0,0-1.1405-1.52,7.8755,7.8755,0,0,0-1.5191-1.34,3.7057,3.7057,0,0,0-2-.46,3.3215,3.3215,0,0,0-2.2389.72,2.4032,2.4032,0,0,0-.84,1.92,3.047,3.047,0,0,0,.2,1.14,2.2925,2.2925,0,0,0,.72.92,6.311,6.311,0,0,0,1.36.7993q.8385.381,2.1193.86a22.7,22.7,0,0,1,3.0785,1.3994,8.4252,8.4252,0,0,1,2.06,1.5593,5.3744,5.3744,0,0,1,1.14,1.84,6.5965,6.5965,0,0,1,.36,2.24,7.4656,7.4656,0,0,1-.5806,2.9587,6.3094,6.3094,0,0,1-1.7191,2.34,8.2607,8.2607,0,0,1-2.8392,1.5387A12.4437,12.4437,0,0,1,360.0791,183.7749Z" transform="translate(-0.6518 -0.9432)" fill="#1389ca"/><path d="M369.837,182.6951l.8395-.2393q.5591-.16.88-.28a.96.96,0,0,0,.48-.36,1.3522,1.3522,0,0,0,.2-.62q.04-.38.04-1.0591V166.7793a9.6331,9.6331,0,0,0-.04-.9993,2.2344,2.2344,0,0,0-.16-.64,1.3488,1.3488,0,0,0-.38-.4992,8.3765,8.3765,0,0,0-.74-.54l-1.24-.8395v-.36l9.0382-1,.32.2-.04,2.8793h.1206a18.0521,18.0521,0,0,1,3.4187-2.1791,8.9426,8.9426,0,0,1,4.0189-.94q3.6379,0,4.6387,3.1588h.1207a19.162,19.162,0,0,1,3.4991-2.2193,9.0222,9.0222,0,0,1,4.0582-.94,4.9574,4.9574,0,0,1,3.6393,1.34,5.4113,5.4113,0,0,1,1.3593,4.019v12.9168q0,.68.04,1.0591a1.22,1.22,0,0,0,.2.6,1.1218,1.1218,0,0,0,.5.36,8.0309,8.0309,0,0,0,.9395.3l.84.2393v.6H394.99v-.6l.72-.2a4.6755,4.6755,0,0,0,.7-.2393.924.924,0,0,0,.4-.34,1.4642,1.4642,0,0,0,.1794-.6394q.04-.4208.04-1.14V168.5a3.774,3.774,0,0,0-.54-2.38,2.3669,2.3669,0,0,0-1.8594-.62,12.3762,12.3762,0,0,0-1.7594.1206,7.2553,7.2553,0,0,0-1.3995.32,6.851,6.851,0,0,1,.06.76c.0128.3462.02.6531.02.9189v12.5177c0,.48.0137.8532.04,1.119a1.6686,1.6686,0,0,0,.16.62.7966.7966,0,0,0,.38.34,7.2619,7.2619,0,0,0,.7395.28l.6394.2v.6h-10.877v-.6l.72-.2a4.4607,4.4607,0,0,0,.74-.2393.7757.7757,0,0,0,.38-.36,1.8737,1.8737,0,0,0,.16-.64c.0265-.2658.04-.6395.04-1.119V168.5a3.89,3.89,0,0,0-.52-2.38,2.2441,2.2441,0,0,0-1.8-.62,10.6881,10.6881,0,0,0-1.7593.14,8.3741,8.3741,0,0,0-1.4005.34v14.1564c0,.48.0137.8532.04,1.119a1.8737,1.8737,0,0,0,.16.64.77.77,0,0,0,.38.36,4.3817,4.3817,0,0,0,.7394.2393l.72.2v.6H369.837Z" transform="translate(-0.6518 -0.9432)" fill="#1389ca"/><path d="M413.6254,182.6951l.559-.2a3.9892,3.9892,0,0,0,.86-.36,2.1468,2.1468,0,0,0,.66-.68,8.1316,8.1316,0,0,0,.68-1.34q.36-.859.92-2.339l8.078-22.1942h4.0787l8.1183,22.2737q.48,1.3194.7993,2.1595a8.65,8.65,0,0,0,.6208,1.34,2.8183,2.8183,0,0,0,.62.76,2.02,2.02,0,0,0,.759.38l.72.2v.6H426.7413v-.6l1.08-.2795a1.968,1.968,0,0,0,1.2-.64,1.8543,1.8543,0,0,0,.32-1.1189,7.523,7.523,0,0,0-.22-1.54,13.4322,13.4322,0,0,0-.54-1.82l-.9994-3.1187h-7.4386l-.9993,2.92q-.36,1.04-.58,1.8986a6.2716,6.2716,0,0,0-.2207,1.54,1.5861,1.5861,0,0,0,.4,1.1406,3.509,3.509,0,0,0,1.5594.7394l1,.2795v.6h-7.6779Zm6.958-9.7972h6.5982l-3.0794-9.957h-.12Z" transform="translate(-0.6518 -0.9432)" fill="#1389ca"/><path d="M454.7344,166.86q0-.64-.04-1.06a2.1362,2.1362,0,0,0-.16-.68,1.4093,1.4093,0,0,0-.3795-.48,8.686,8.686,0,0,0-.74-.54l-1.24-.8395v-.36l9.1578-1,.2795.2v16.7965q0,.759.04,1.219a2.052,2.052,0,0,0,.18.74,1.1215,1.1215,0,0,0,.4394.46,3.9718,3.9718,0,0,0,.78.3393l1,.36v.48l-8.9176,1.28-.28-.2393v-2.8391h-.12a23.6869,23.6869,0,0,1-3.4393,2.1389,9.2016,9.2016,0,0,1-4.2386.94,5.1627,5.1627,0,0,1-3.759-1.3593,5.3269,5.3269,0,0,1-1.4005-3.9993V166.82c0-.4266-.0137-.7659-.0392-1.02a2.3337,2.3337,0,0,0-.16-.66,1.3507,1.3507,0,0,0-.38-.4992,8.4846,8.4846,0,0,0-.7394-.54l-1.2-.8395v-.36l9.1186-1,.32.2V176.857a3.8156,3.8156,0,0,0,.66,2.5391,2.4083,2.4083,0,0,0,1.9.74,10.0025,10.0025,0,0,0,1.9192-.16q.7989-.16,1.44-.3207Z" transform="translate(-0.6518 -0.9432)" fill="#1389ca"/><path d="M472.13,183.7749a6.2066,6.2066,0,0,1-4.4593-1.3789q-1.4194-1.38-1.42-4.4592V164.3805h-2.1987v-.44a11.3149,11.3149,0,0,0,2.3791-1.18,15.9807,15.9807,0,0,0,2.1193-1.64,12.6816,12.6816,0,0,0,1.74-1.9595,12.1425,12.1425,0,0,0,1.24-2.1389h1.64V162.42h4.9987l-.28,1.96H473.17v13.5161a3.5019,3.5019,0,0,0,.5394,2.3,2.8663,2.8663,0,0,0,2.1.58,9.1736,9.1736,0,0,0,1.4593-.12q.74-.1207,1.22-.24v.6a10.8856,10.8856,0,0,1-.96.92,7.5283,7.5283,0,0,1-1.34.8993,7.9681,7.9681,0,0,1-1.779.68A9.0751,9.0751,0,0,1,472.13,183.7749Z" transform="translate(-0.6518 -0.9432)" fill="#1389ca"/><path d="M495.6434,161.8611a5.25,5.25,0,0,1,3.8188,1.34,5.3627,5.3627,0,0,1,1.38,4.019v12.956a10.481,10.481,0,0,0,.04,1.06,1.2092,1.2092,0,0,0,.1991.6,1.0126,1.0126,0,0,0,.5.3394q.34.1206.9.28l.8395.2393v.6H491.7637v-.6l.72-.2a5.0314,5.0314,0,0,0,.8-.2393.9051.9051,0,0,0,.42-.34,1.4367,1.4367,0,0,0,.18-.62q.0382-.3987.0392-1.12V168.5a3.4921,3.4921,0,0,0-.6394-2.4194,2.558,2.558,0,0,0-1.9192-.66,10.9361,10.9361,0,0,0-3.36.48v14.2761q0,.7209.04,1.12a1.4083,1.4083,0,0,0,.18.62.89.89,0,0,0,.4393.34,5.8309,5.8309,0,0,0,.82.2393l.72.2v.6H478.6478v-.6l.7993-.2393q.6-.16.92-.28a1.0134,1.0134,0,0,0,.48-.3394,1.2192,1.2192,0,0,0,.2-.6q.04-.38.04-1.06V157.8618q0-.759-.04-1.22a2.6891,2.6891,0,0,0-.16-.76,1.119,1.119,0,0,0-.4-.4992,5.7575,5.7575,0,0,0-.759-.44l-1.28-.5992v-.44l9.397-.88.32.2q-.04.68-.0795,1.44-.04.68-.06,1.5593t-.0206,1.88V164.74h.1206a20.3129,20.3129,0,0,1,3.3785-2A9.5584,9.5584,0,0,1,495.6434,161.8611Z" transform="translate(-0.6518 -0.9432)" fill="#1389ca"/><path d="M514.5582,183.7749a13.2017,13.2017,0,0,1-4.1592-.659,10.0284,10.0284,0,0,1-3.5383-2.02,9.6568,9.6568,0,0,1-2.44-3.3991,11.8027,11.8027,0,0,1-.8993-4.7986,12.0107,12.0107,0,0,1,.9591-5.0192,9.6735,9.6735,0,0,1,6.0588-5.3978,13.3607,13.3607,0,0,1,4.0189-.62,13.2056,13.2056,0,0,1,4.1591.659,10.2266,10.2266,0,0,1,3.5394,2,9.44,9.44,0,0,1,2.439,3.3991,11.9537,11.9537,0,0,1,.9,4.8192,12.2123,12.2123,0,0,1-.9405,5.0182,9.479,9.479,0,0,1-6.0186,5.3988A13.71,13.71,0,0,1,514.5582,183.7749Zm.12-1.119a3.5958,3.5958,0,0,0,1.66-.3589,2.7138,2.7138,0,0,0,1.1592-1.3936,10.81,10.81,0,0,0,.7-2.9078,40.1506,40.1506,0,0,0,.2393-4.8986,39.0783,39.0783,0,0,0-.2795-5.2183,11.3024,11.3024,0,0,0-.78-3.0667,2.94,2.94,0,0,0-1.24-1.4534,3.5976,3.5976,0,0,0-1.6594-.3785,3.2672,3.2672,0,0,0-1.58.3785,2.9233,2.9233,0,0,0-1.18,1.4338,10.828,10.828,0,0,0-.7394,2.8882,34.39,34.39,0,0,0-.26,4.7,46.4552,46.4552,0,0,0,.2393,5.2772,11.7042,11.7042,0,0,0,.72,3.1264,2.8391,2.8391,0,0,0,1.22,1.4937A3.8558,3.8558,0,0,0,514.6778,182.6559Z" transform="translate(-0.6518 -0.9432)" fill="#1389ca"/><path d="M526.3158,182.6951l.84-.2393q.559-.16.88-.28a.9593.9593,0,0,0,.48-.36,1.3534,1.3534,0,0,0,.2-.62q.04-.38.04-1.0591V166.7391a9.77,9.77,0,0,0-.04-.98,2.0238,2.0238,0,0,0-.16-.6394,1.3972,1.3972,0,0,0-.38-.48,8.3724,8.3724,0,0,0-.74-.54l-1.24-.8395v-.36l9.0381-1,.32.2v3.12h.0805q.48-.5193,1.0993-1.12a8.4481,8.4481,0,0,1,1.38-1.08,8.6607,8.6607,0,0,1,1.6191-.7993,5.0492,5.0492,0,0,1,1.78-.3207,3.1112,3.1112,0,0,1,2.2389.8,3.053,3.053,0,0,1,.84,2.3193,3.2729,3.2729,0,0,1-.86,2.4194,2.9513,2.9513,0,0,1-2.1791.86,2.7593,2.7593,0,0,1-1.9-.56,3.9458,3.9458,0,0,1-.98-1.3994,2.6455,2.6455,0,0,0-.4207-.66.728.728,0,0,0-.5394-.18,2.7287,2.7287,0,0,0-1.02.24,4.0213,4.0213,0,0,0-1.02.6v13.7965q0,.68.04,1.0993a1.2919,1.2919,0,0,0,.22.66.9626.9626,0,0,0,.4805.3393,8.3282,8.3282,0,0,0,.8591.2206l1.08.2v.6394H526.3158Z" transform="translate(-0.6518 -0.9432)" fill="#1389ca"/><path d="M544.7108,182.6951l.84-.2393q.559-.16.88-.28a1.0134,1.0134,0,0,0,.48-.3394,1.2192,1.2192,0,0,0,.2-.6q.04-.38.04-1.06V166.7391c0-.4256-.0137-.7659-.04-1.0189a1.7265,1.7265,0,0,0-.1794-.64,1.5977,1.5977,0,0,0-.42-.48q-.281-.2191-.76-.54l-1.24-.7992v-.36l9.4372-1,.2795.2q-.0793,1.24-.12,2.3792t-.04,2.6194v13.0767q0,.6811.04,1.06a1.2192,1.2192,0,0,0,.2.6,1.0035,1.0035,0,0,0,.5.3394q.3384.1206.8993.28l.8.2393v.6H544.7108Zm2.239-25.913a3.0034,3.0034,0,0,1,.9993-2.34,3.5746,3.5746,0,0,1,2.48-.8993,3.63,3.63,0,0,1,2.5194.8993,3.0034,3.0034,0,0,1,.9993,2.34,2.9718,2.9718,0,0,1-.9993,2.3791,3.727,3.727,0,0,1-2.5194.86,3.6693,3.6693,0,0,1-2.48-.86A2.9718,2.9718,0,0,1,546.95,156.7821Z" transform="translate(-0.6518 -0.9432)" fill="#1389ca"/><path d="M564.5455,183.7749a6.2062,6.2062,0,0,1-4.4592-1.3789q-1.42-1.38-1.42-4.4592V164.3805h-2.1987v-.44a11.318,11.318,0,0,0,2.3792-1.18,15.9862,15.9862,0,0,0,2.1192-1.64,12.6816,12.6816,0,0,0,1.74-1.9595,12.1362,12.1362,0,0,0,1.24-2.1389h1.64V162.42h4.9986l-.2805,1.96h-4.7181v13.5161a3.502,3.502,0,0,0,.5393,2.3,2.8664,2.8664,0,0,0,2.1.58,9.1736,9.1736,0,0,0,1.4593-.12q.74-.1207,1.22-.24v.6a10.8856,10.8856,0,0,1-.96.92,7.531,7.531,0,0,1-1.34.8993,7.97,7.97,0,0,1-1.779.68A9.0765,9.0765,0,0,1,564.5455,183.7749Z" transform="translate(-0.6518 -0.9432)" fill="#1389ca"/><path d="M587.9784,167.459q.3192-.9195.5-1.54a3.9072,3.9072,0,0,0,.1795-1.0592,1.55,1.55,0,0,0-1.3592-1.5593l-1.04-.2805v-.6h6.6786v.6l-.72.2805a1.8441,1.8441,0,0,0-.62.3393,2.6666,2.6666,0,0,0-.5208.64,9.5241,9.5241,0,0,0-.559,1.08q-.3.659-.7,1.6593L582.34,185.1351q-.681,1.5594-1.34,2.7587a8.486,8.486,0,0,1-1.48,2,5.4633,5.4633,0,0,1-1.8594,1.2,6.68,6.68,0,0,1-2.4.3991,4.6562,4.6562,0,0,1-2.7587-.82,2.6153,2.6153,0,0,1-1.16-2.26,2.3738,2.3738,0,0,1,.7394-1.8388,2.9886,2.9886,0,0,1,2.1-.6806,2.9207,2.9207,0,0,1,1.7594.5207,2.6816,2.6816,0,0,1,.92,1.8791,4.065,4.065,0,0,0,.18.82c.0657.1736.2462.26.5394.26a2.5436,2.5436,0,0,0,1.58-.98,10.4506,10.4506,0,0,0,1.8594-3.38l.36-.88-7.9182-17.5957q-.44-.9592-.76-1.5594a6.7408,6.7408,0,0,0-.5992-.9591,2.3925,2.3925,0,0,0-.52-.5207,1.8925,1.8925,0,0,0-.52-.2393l-.64-.24v-.6H582.94v.6l-1.0395.32a2.8176,2.8176,0,0,0-.9395.54,1.3493,1.3493,0,0,0-.38,1.0591,3.3256,3.3256,0,0,0,.18,1q.18.5606.42,1.24l3.4393,8.9175h.16Z" transform="translate(-0.6518 -0.9432)" fill="#1389ca"/><polygon points="112.216 113.318 103.037 122.497 93.85 113.318 103.037 135.488 112.216 113.318" fill="#fff"/><polygon points="80.859 126.302 90.045 135.488 80.859 144.675 103.037 135.488 80.859 126.302" fill="#fff"/><polygon points="103.037 135.488 93.85 157.658 103.037 148.48 112.216 157.658 103.037 135.488" fill="#fff"/><polygon points="125.207 126.302 103.037 135.488 125.207 144.666 116.028 135.488 125.207 126.302" fill="#fff"/></svg>